<svg width="23" height="25" viewBox="0 0 23 25" fill="none" xmlns="http://www.w3.org/2000/svg">
<path d="M23 1.58443V11.4187C23 12.0159 22.5153 12.5 21.9174 12.5H20.5115C15.25 12.5 10.9847 16.7599 10.9847 22.0147V23.4288C10.9847 24.0204 10.5045 24.5 9.91217 24.5C9.66266 24.5 9.42561 24.3912 9.26307 24.2021C7.8816 22.5922 1.35081 14.9821 0.770122 14.3055C0.742546 14.2735 0.713644 14.2425 0.684477 14.2121C-0.242774 13.2383 -0.227925 11.6984 0.729023 10.7427L3.21751 8.25734C4.18931 7.28678 5.76486 7.28678 6.73666 8.25734C7.24364 8.76367 7.86676 8.99036 8.4782 8.99036C9.75732 8.99036 10.9847 7.99808 10.9847 6.5C10.9847 3.18632 13.6745 0.5 16.9924 0.5H21.9142C22.514 0.5 23 0.985413 23 1.58443Z" fill="white"/>
</svg>
