<svg width="84" height="37" viewBox="0 0 84 37" fill="none" xmlns="http://www.w3.org/2000/svg">
<path d="M29 7.58443V17.4187C29 18.0159 28.5153 18.5 27.9174 18.5H26.5115C21.25 18.5 16.9847 22.7599 16.9847 28.0147V29.4288C16.9847 30.0204 16.5045 30.5 15.9122 30.5C15.6627 30.5 15.4256 30.3912 15.2631 30.2021C13.8816 28.5922 7.35081 20.9821 6.77012 20.3055C6.74255 20.2735 6.71364 20.2425 6.68448 20.2121C5.75723 19.2383 5.77208 17.6984 6.72902 16.7427L9.21751 14.2573C10.1893 13.2868 11.7649 13.2868 12.7367 14.2573C13.2436 14.7637 13.8668 14.9904 14.4782 14.9904C15.7573 14.9904 16.9847 13.9981 16.9847 12.5C16.9847 9.18632 19.6745 6.5 22.9924 6.5H27.9142C28.514 6.5 29 6.98541 29 7.58443Z" fill="white"/>
<path d="M40.6202 22.3312C45.675 22.3312 47.9696 20.5455 47.9696 16.1623V12.4935C47.9696 8.11039 45.675 6.32467 40.6202 6.32467H36.2305C35.266 6.32467 35 6.58442 35 7.52597V29.474C35 30.4156 35.266 30.6753 36.2305 30.6753H38.3588C39.3232 30.6753 39.5893 30.4156 39.5893 29.474V22.9156C39.5893 22.461 39.7223 22.3312 40.1879 22.3312H40.6202ZM39.5893 11.4545C39.5893 11 39.7223 10.8701 40.1879 10.8701H40.8862C42.5157 10.8701 43.2474 11.5195 43.2474 13.1753V15.4805C43.2474 17.1364 42.5157 17.7857 40.8862 17.7857H40.1879C39.7223 17.7857 39.5893 17.6558 39.5893 17.2013V11.4545Z" fill="white"/>
<path d="M58.3329 14.3442L54.8744 7.85065C54.176 6.51948 53.7104 6.32467 52.48 6.32467H51.183C50.2186 6.32467 49.9525 6.58442 49.9525 7.52597V29.474C49.9525 30.4156 50.2186 30.6753 51.183 30.6753H53.2116C54.176 30.6753 54.442 30.4156 54.442 29.474V16.2597C54.442 16.0325 54.5085 15.9351 54.7081 15.9351C54.9076 15.9351 54.9741 16 55.1404 16.2922L58.2332 21.9091C58.7985 22.9481 59.0313 23.5 59.0313 25.026V29.474C59.0313 30.4156 59.2973 30.6753 60.2617 30.6753H62.2903C63.2547 30.6753 63.5208 30.4156 63.5208 29.474V7.52597C63.5208 6.58442 63.2547 6.32467 62.2903 6.32467H60.2617C59.2973 6.32467 59.0313 6.58442 59.0313 7.52597V14.3766C59.0313 14.6039 58.9648 14.7013 58.7652 14.7013C58.5657 14.7013 58.4992 14.6364 58.3329 14.3442Z" fill="white"/>
<path d="M71.0163 14.9935C70.0852 14.1494 69.8857 13.6948 69.8857 12.7532V12.2013C69.8857 11.0325 70.4178 10.5455 71.5817 10.5455C72.7456 10.5455 73.2777 11.0649 73.2777 12.3636V13.7922C73.2777 14.7338 73.5438 14.9935 74.5082 14.9935H76.7695C77.734 14.9935 78 14.7338 78 13.7922V13.1429C78 7.91558 76.4037 6 71.5817 6C66.7596 6 65.1634 8.27273 65.1634 12.3636V13.0779C65.1634 15.2532 65.629 16.3571 67.8571 18.2727L71.8477 21.7468C73.0782 22.8182 73.2777 23.2727 73.2777 24.1818V24.7987C73.2777 25.9675 72.7456 26.4545 71.5817 26.4545C70.4178 26.4545 69.8857 25.9351 69.8857 24.6364V23.2078C69.8857 22.2662 69.6196 22.0065 68.6552 22.0065H66.3938C65.4294 22.0065 65.1634 22.2662 65.1634 23.2078V23.8571C65.1634 29.0844 66.7596 31 71.5817 31C76.4037 31 78 28.7273 78 24.6364V24.0519C78 21.8766 77.5012 20.7078 75.2731 18.7597L71.0163 14.9935Z" fill="white"/>
</svg>
